<mxfile host="Electron" agent="Mozilla/5.0 (Windows NT 10.0; Win64; x64) AppleWebKit/537.36 (KHTML, like Gecko) draw.io/24.7.8 Chrome/128.0.6613.36 Electron/32.0.1 Safari/537.36" version="24.7.8">
  <diagram name="Seite-1" id="QJI-42Hn-8XDsUpOFSds">
    <mxGraphModel dx="1185" dy="688" grid="1" gridSize="10" guides="1" tooltips="1" connect="1" arrows="1" fold="1" page="1" pageScale="1" pageWidth="827" pageHeight="1169" math="0" shadow="0">
      <root>
        <mxCell id="0" />
        <mxCell id="1" parent="0" />
        <mxCell id="Vziy_lIDq63u1nh27KbB-3" value="" style="rounded=0;whiteSpace=wrap;html=1;strokeColor=none;fillColor=#2B92E0;" vertex="1" parent="1">
          <mxGeometry x="55" y="40" width="40" height="200" as="geometry" />
        </mxCell>
        <mxCell id="Vziy_lIDq63u1nh27KbB-4" value="" style="rounded=0;whiteSpace=wrap;html=1;strokeColor=none;fillColor=#31DEB9;" vertex="1" parent="1">
          <mxGeometry x="115" y="60" width="440" height="160" as="geometry" />
        </mxCell>
        <mxCell id="Vziy_lIDq63u1nh27KbB-5" value="" style="rounded=0;whiteSpace=wrap;html=1;strokeColor=none;fillColor=#E17A2A;" vertex="1" parent="1">
          <mxGeometry x="575" y="40" width="40" height="200" as="geometry" />
        </mxCell>
        <mxCell id="Vziy_lIDq63u1nh27KbB-6" value="" style="shape=trapezoid;perimeter=trapezoidPerimeter;whiteSpace=wrap;html=1;fixedSize=1;rotation=-90;strokeColor=none;fillColor=#2B92E0;" vertex="1" parent="1">
          <mxGeometry x="-50" y="125" width="200" height="30" as="geometry" />
        </mxCell>
        <mxCell id="Vziy_lIDq63u1nh27KbB-7" value="" style="shape=trapezoid;perimeter=trapezoidPerimeter;whiteSpace=wrap;html=1;fixedSize=1;rotation=90;strokeColor=none;fillColor=#E17A2A;" vertex="1" parent="1">
          <mxGeometry x="520" y="125" width="200" height="30" as="geometry" />
        </mxCell>
      </root>
    </mxGraphModel>
  </diagram>
</mxfile>
